<svg width="907" height="756" viewBox="0 0 907 756" fill="none" xmlns="http://www.w3.org/2000/svg">
<rect width="907" height="756" fill="#E5E5E5"/>
<path d="M208.88 350H208.7L200.21 339.05L186.47 352.79L187.99 355.07L186.26 355.49C186.26 355.49 213.99 409.05 218.61 388.72C223.23 368.39 208.88 350 208.88 350Z" fill="#FDB797"/>
<path d="M266.77 158.63C266.77 158.63 317.34 173.8 388.15 151.04C458.96 128.28 605.62 183.91 605.62 183.91C605.62 183.91 721.94 183.91 893.9 110.58C893.9 110.58 815.51 186.44 871.14 231.96C926.77 277.48 876.2 343.22 810.45 368.51C744.7 393.8 739.65 444.37 744.7 492.42C749.75 540.47 744.7 494.95 744.7 494.95C744.7 494.95 547.46 459.55 496.88 580.95L246.54 186.45C246.54 186.45 231.37 156.11 266.77 158.63Z" fill="#6C63FF"/>
<g opacity="0.1">
<path opacity="0.1" d="M281.38 194.32C281.38 194.32 331.95 209.49 402.76 186.73C473.57 163.97 620.21 219.61 620.21 219.61C620.21 219.61 714.31 219.61 858.35 166.25C869.74 136.13 895.84 110.87 895.84 110.87C723.84 184.2 607.56 184.2 607.56 184.2C607.56 184.2 460.89 128.57 390.09 151.33C319.29 174.09 268.71 158.92 268.71 158.92C233.31 156.39 248.48 186.74 248.48 186.74L258.89 203.15C261.06 197.62 267.11 193.3 281.38 194.32Z" fill="black"/>
<path opacity="0.1" d="M873.11 232.25C870.511 230.135 868.084 227.818 865.85 225.32C865.27 240.25 870.42 255.1 885.75 267.65C889.836 270.955 893.581 274.66 896.93 278.71C897.42 262.49 890.39 246.39 873.11 232.25Z" fill="black"/>
</g>
<path d="M358.58 700.77L353.92 724.08H335.27L339.94 691.45L358.58 700.77Z" fill="#FDB797"/>
<path opacity="0.1" d="M358.2 703.99L356.89 707.93L338.5 702.68L339.81 700.05L358.2 703.99Z" fill="black"/>
<path d="M237.41 700.77L242.07 724.08H260.71L256.05 691.45L237.41 700.77Z" fill="#FDB797"/>
<path opacity="0.1" d="M237.34 703.99L238.65 709.24L257.05 702.68V700.05L237.34 703.99Z" fill="black"/>
<path d="M398.03 66.49C398.03 66.49 397.51 43.13 381.1 30.27C364.69 17.41 376.97 76.46 376.97 76.46L398.03 66.49Z" fill="#FDB797"/>
<path d="M260.71 719.42H237.41L232.75 733.42C232.75 733.42 208.93 732.9 209.45 738.08C209.97 743.26 222.91 752.08 256.05 742.74L265.37 733.42C265.37 733.42 270.03 728.74 260.71 719.42Z" fill="#333333"/>
<path d="M335.27 719.42H358.57L363.23 733.42C363.23 733.42 387.05 732.9 386.53 738.08C386.01 743.26 373.07 752.08 339.93 742.74L330.61 733.42C330.61 733.42 325.95 728.74 335.27 719.42Z" fill="#333333"/>
<path d="M363.21 402.51H232.75C190.29 514.36 195.47 565.63 195.47 565.63L232.75 705.44L260.75 700.78L232.75 561C256.05 541.84 298 467.79 298 467.79C298 467.79 339.93 541.8 363.21 561L335.21 700.81L363.21 705.47L400.49 565.66C400.49 565.66 405.7 514.36 363.21 402.51Z" fill="#333333"/>
<path opacity="0.1" d="M232.75 404.32C232.75 404.32 306.75 432.32 363.24 404.32H232.75Z" fill="black"/>
<path d="M228.63 235.19L191.35 272.47L205.35 347.04L186.71 361.04L154.09 263.17C154.09 263.17 144.25 245.05 158.75 235.17L214.68 179.24C214.68 179.24 238.68 163.16 255.18 171.4C271.68 179.64 228.31 234.6 228.31 234.6" fill="#3AD29F"/>
<path d="M228.08 234.73L232.74 402.51C232.74 402.51 306.74 430.51 363.23 402.51L358.57 244.57L357.38 239.35L358.24 236.78L414.24 190.34C429.59 181.89 421.48 162.93 421.48 162.93L398.08 62.46L378.21 74.64L385.21 150.18L345.33 183.26L344.33 183.21V183.46L242.1 178.81" fill="#3AD29F"/>
<path d="M301.06 155.76H295.44C286.697 155.76 279.61 162.847 279.61 171.59V181.87C279.61 190.613 286.697 197.7 295.44 197.7H301.06C309.803 197.7 316.89 190.613 316.89 181.87V171.59C316.89 162.847 309.803 155.76 301.06 155.76Z" fill="#FDB797"/>
<path opacity="0.1" d="M280.8 173.67C286.718 175.737 293.024 176.45 299.254 175.758C305.484 175.066 311.48 172.985 316.8 169.67C315.487 166.076 313.103 162.97 309.971 160.773C306.838 158.575 303.107 157.391 299.28 157.38C294.749 157.396 290.378 159.056 286.979 162.052C283.58 165.048 281.384 169.177 280.8 173.67Z" fill="black"/>
<path d="M293.59 174.4C316.753 174.4 335.53 155.623 335.53 132.46C335.53 109.297 316.753 90.52 293.59 90.52C270.427 90.52 251.65 109.297 251.65 132.46C251.65 155.623 270.427 174.4 293.59 174.4Z" fill="#FDB797"/>
<path opacity="0.1" d="M264.46 109.33C261.855 109.659 259.212 109.51 256.66 108.89C254.155 107.98 251.896 106.501 250.06 104.57C244.58 99.31 240.5 92.29 239.97 84.71C239.44 77.13 242.97 69.1 249.54 65.34C258.74 60.1 270.47 64.24 279.34 70.02C286.97 75.02 296.08 81.43 304.28 77.46C306.97 76.16 309.05 73.87 311.5 72.16C320.97 65.51 335.07 68.79 342.8 77.4C350.53 86.01 352.7 98.47 351.37 109.97C350.04 121.47 345.64 132.34 341.6 143.18C340.971 145.319 339.906 147.304 338.47 149.01C333.55 154.06 324.34 150.14 321.1 143.88C315.47 132.99 321.1 114.11 307.8 107.76C297.21 102.72 275.83 108.59 264.46 109.33Z" fill="black"/>
<path d="M265.09 108.29C262.485 108.619 259.842 108.47 257.29 107.85C254.785 106.94 252.526 105.461 250.69 103.53C245.21 98.27 241.13 91.25 240.6 83.67C240.07 76.09 243.6 68.06 250.17 64.3C259.37 59.06 271.1 63.2 279.97 68.98C287.6 73.98 296.71 80.39 304.91 76.42C307.6 75.12 309.68 72.83 312.13 71.12C321.6 64.47 335.7 67.75 343.43 76.36C351.16 84.97 353.33 97.43 352 108.93C350.67 120.43 346.21 131.3 342.21 142.14C341.581 144.279 340.516 146.264 339.08 147.97C334.16 153.02 324.95 149.1 321.71 142.84C316.08 131.95 321.71 113.07 308.41 106.72C297.87 101.68 276.45 107.56 265.09 108.29Z" fill="#333333"/>
<path d="M316.89 141.78C319.464 141.78 321.55 137.607 321.55 132.46C321.55 127.313 319.464 123.14 316.89 123.14C314.316 123.14 312.23 127.313 312.23 132.46C312.23 137.607 314.316 141.78 316.89 141.78Z" fill="#FDB797"/>
<path opacity="0.1" d="M228.14 234.71L239.97 240.25L228.14 254.71V234.71Z" fill="black"/>
<path opacity="0.1" d="M358.2 236.75L350.32 245.51L355.57 253.39L358.64 244.63L358.2 236.75Z" fill="black"/>
<path d="M298.8 194V201.59C298.8 201.59 243.45 191.48 242.04 176.3L278.57 178.83L298.8 194Z" fill="#6C63FF"/>
<path d="M242.21 176.67C242.21 176.67 242.21 160.78 252.81 160.78C263.41 160.78 274 192.57 274 192.57L242.21 176.67Z" fill="#6C63FF"/>
</svg>
