<svg width="1144" height="653" viewBox="0 0 1144 653" fill="none" xmlns="http://www.w3.org/2000/svg">
<rect width="1144" height="653" fill="#E5E5E5"/>
<path d="M749 249.07L748.32 258.2C748.22 259.44 745.85 288.96 728.37 323.46C713.37 353.05 684.18 391.59 629.07 413.25C624.77 414.95 620.307 416.537 615.68 418.01L610.52 401.81C623.474 397.733 635.953 392.275 647.74 385.53C675.83 369.31 697.67 346.16 712.9 316.37C720.98 300.509 726.739 283.569 730 266.07H667.3V249.07H749Z" fill="#6C63FF"/>
<path opacity="0.1" d="M622.32 413.26C677.42 391.6 706.62 353.07 721.61 323.48C739.09 288.98 741.47 259.48 741.56 258.22L742.24 249.09H749.24L748.56 258.22C748.47 259.46 746.09 288.98 728.61 323.48C713.61 353.07 684.42 391.6 629.32 413.26C625.02 414.96 620.553 416.55 615.92 418.03L615.24 415.9C617.653 415.04 620.013 414.16 622.32 413.26Z" fill="white"/>
<path d="M512 401.81L506.84 418.01C502.207 416.53 497.74 414.94 493.44 413.24C438.34 391.58 409.14 353.05 394.15 323.46C376.67 288.96 374.29 259.46 374.2 258.2L373.52 249.07H455.18V266.07H392.47C395.748 283.572 401.524 300.511 409.62 316.37C424.85 346.16 446.68 369.31 474.77 385.52C486.558 392.272 499.041 397.734 512 401.81Z" fill="#6C63FF"/>
<path opacity="0.1" d="M500.18 413.26C445.08 391.6 415.88 353.07 400.89 323.48C383.41 288.98 381.03 259.48 380.94 258.22L380.26 249.09H373.26L373.94 258.22C374.03 259.46 376.41 288.98 393.89 323.48C408.89 353.07 438.08 391.6 493.18 413.26C497.48 414.96 501.947 416.55 506.58 418.03L507.26 415.9C504.853 415.04 502.493 414.16 500.18 413.26Z" fill="white"/>
<path d="M655.59 558.41V650.08H466.92V558.41L472.92 550.41C534.06 528.71 546.45 472.12 548.92 449.73C549.288 446.636 549.498 443.525 549.55 440.41H572.88C572.932 443.525 573.142 446.636 573.51 449.73C576.02 472.12 588.41 528.73 649.51 550.41L655.59 558.41Z" fill="#6C63FF"/>
<path opacity="0.1" d="M655.59 558.41H466.92V569.91H655.59V558.41Z" fill="black"/>
<path opacity="0.1" d="M482.92 550.41C544.06 528.71 556.45 472.12 558.92 449.73C559.288 446.636 559.498 443.525 559.55 440.41H549.55C549.498 443.525 549.288 446.636 548.92 449.73C546.41 472.12 534.02 528.73 472.92 550.41L466.92 558.41V650.08H476.92V558.41L482.92 550.41Z" fill="white"/>
<path opacity="0.1" d="M438.26 249.07H455.18V266.07H439.76C439.153 260.47 438.653 254.803 438.26 249.07Z" fill="black"/>
<path opacity="0.1" d="M512 401.81L506.84 418.01C502.207 416.53 497.74 414.94 493.44 413.24C486.367 404.602 480.116 395.322 474.77 385.52C486.558 392.272 499.041 397.734 512 401.81Z" fill="black"/>
<path opacity="0.1" d="M610.51 401.81C623.464 397.733 635.943 392.275 647.73 385.53C642.381 395.333 636.131 404.616 629.06 413.26C624.76 414.96 620.297 416.547 615.67 418.02L610.51 401.81Z" fill="black"/>
<path opacity="0.1" d="M684.24 249.07C683.847 254.803 683.347 260.47 682.74 266.07H667.33V249.07H684.24Z" fill="black"/>
<path opacity="0.1" d="M573.55 449.73C565.429 451.303 557.081 451.303 548.96 449.73C549.328 446.636 549.538 443.525 549.59 440.41H572.92C572.972 443.525 573.182 446.636 573.55 449.73Z" fill="black"/>
<path d="M440.26 220.91C440.69 346.97 494.69 448.91 561.26 448.91C627.83 448.91 681.82 346.97 682.26 220.91H440.26Z" fill="#6C63FF"/>
<path opacity="0.1" d="M461.76 220.91H440.26C440.69 346.97 494.69 448.91 561.26 448.91C564.862 448.903 568.458 448.599 572.01 448C510.47 437.72 462.17 340.11 461.76 220.91Z" fill="white"/>
<path d="M625.42 593.5H497.09V626.5H625.42V593.5Z" fill="#3F3D56"/>
<path opacity="0.1" d="M503.09 598H625.42V593.5H497.09V626.5H503.09V598Z" fill="white"/>
</svg>
